<?xml version="1.0" encoding="UTF-8" standalone="no"?>
<!-- Created with Inkscape (http://www.inkscape.org/) -->

<svg
   width="135mm"
   height="135mm"
   viewBox="0 0 135 135"
   version="1.1"
   id="svg1"
   xml:space="preserve"
   inkscape:version="1.4 (86a8ad7, 2024-10-11)"
   sodipodi:docname="logo.svg"
   xmlns:inkscape="http://www.inkscape.org/namespaces/inkscape"
   xmlns:sodipodi="http://sodipodi.sourceforge.net/DTD/sodipodi-0.dtd"
   xmlns="http://www.w3.org/2000/svg"
   xmlns:svg="http://www.w3.org/2000/svg"><sodipodi:namedview
     id="namedview1"
     pagecolor="#ffffff"
     bordercolor="#000000"
     borderopacity="0.25"
     inkscape:showpageshadow="2"
     inkscape:pageopacity="0.0"
     inkscape:pagecheckerboard="0"
     inkscape:deskcolor="#d1d1d1"
     inkscape:document-units="mm"
     inkscape:zoom="0.68862935"
     inkscape:cx="281.71904"
     inkscape:cy="368.12256"
     inkscape:window-width="1920"
     inkscape:window-height="991"
     inkscape:window-x="-9"
     inkscape:window-y="-9"
     inkscape:window-maximized="1"
     inkscape:current-layer="layer1" /><defs
     id="defs1" /><g
     inkscape:label="Capa 1"
     inkscape:groupmode="layer"
     id="layer1"><rect
       style="fill:#fc6797;fill-opacity:1;stroke-width:141.168;stroke-linecap:square;stroke-linejoin:round;-inkscape-stroke:none"
       id="rect1"
       width="135"
       height="135"
       x="7.1054274e-15"
       y="0" /><path
       style="fill:#214bfb;fill-opacity:1;stroke-width:1.03857"
       d="m 111.77956,97.991407 c -6.59258,-0.8559 -10.4436,-3.64772 -16.161481,-11.71638 l -1.890227,-2.66736 -0.137393,6.58356 -0.137393,6.58355 -3.200681,0.0771 c -2.753303,0.0663 -3.268197,0.01 -3.683794,-0.40595 -0.455249,-0.45525 -0.472489,-1.57724 -0.29885,-19.44984 0.107887,-11.10514 0.08194,-19.12293 -0.06273,-19.343583 -0.150686,-0.22993 -1.072993,-0.457751 -2.365479,-0.584301 -1.679168,-0.164407 -2.355353,-0.371946 -3.260627,-1.00075 -1.352723,-0.939599 -2.378689,-2.798732 -2.378689,-4.310357 0,-1.151208 0.923552,-3.081784 1.598096,-3.340628 0.226618,-0.08693 1.227222,0.122469 2.223568,0.465396 2.797631,0.962915 6.486535,0.852783 13.215296,-0.394544 7.660464,-1.420055 10.405604,-1.685681 15.521634,-1.501936 8.1146,0.291445 11.88787,1.791646 13.77029,5.47488 2.00038,3.914024 1.97887,9.132313 -0.0549,13.330963 -3.24255,6.69402 -12.46996,11.31545 -24.22748,12.13405 -1.862893,0.1297 -3.450781,0.29954 -3.528643,0.3774 -0.244605,0.24461 6.796123,2.87208 9.098533,3.39542 3.01974,0.68639 8.44277,0.68591 10.7168,-9.6e-4 3.49936,-1.05695 8.98007,-4.55947 11.62551,-7.42946 0.63995,-0.69424 1.23309,-1.26227 1.3181,-1.26227 0.0851,0 0.11338,4.68003 0.063,10.40009 -0.0765,8.69922 -0.15827,10.48047 -0.49967,10.89155 -0.72882,0.8776 -2.43913,1.78853 -4.8876,2.60321 -3.87991,1.29093 -8.02256,1.65619 -12.3752,1.09109 z M 97.300114,70.669697 c 4.046916,-1.49999 8.885466,-4.38298 10.423246,-6.21052 1.9162,-2.27728 2.4964,-5.10702 1.30693,-6.37422 -1.03561,-1.103283 -4.10709,-2.357081 -6.59427,-2.691804 -2.28367,-0.307334 -5.442941,-0.06709 -7.835163,0.595924 l -1.050508,0.291134 0.170119,6.782586 c 0.09357,3.73043 0.232017,7.18538 0.307677,7.67768 0.15775,1.02654 0.321024,1.02301 3.271969,-0.0708 z m -34.390832,27.04079 c -6.298652,-1.0523 -11.836273,-6.39219 -13.028415,-12.5632 -0.214942,-1.11262 -0.279217,-2.93629 -0.179171,-5.0836 0.565865,-12.14531 8.341396,-22.740935 18.607126,-25.355692 1.501573,-0.382455 2.126826,-0.406363 3.936158,-0.150489 3.895923,0.550953 5.661958,1.721395 7.182089,4.759961 0.798613,1.59633 0.973487,2.24974 0.973487,3.63737 0,4.81791 -2.789103,9.59201 -7.37679,12.62686 -1.005766,0.66534 -4.206509,2.39754 -7.112774,3.84934 -6.111085,3.05275 -5.826393,2.69355 -5.373128,6.77948 0.340943,3.07339 1.144481,5.15389 2.424676,6.27792 2.767564,2.42996 6.549617,1.61139 10.140033,-2.19464 2.109803,-2.2365 3.322121,-4.31605 4.994237,-8.56689 1.412203,-3.59012 1.686875,-3.83542 3.594405,-3.2101 2.079289,0.6816 3.105972,1.83825 3.105972,3.49912 0,1.15287 -0.995619,4.86565 -1.741898,6.49574 -1.324494,2.89307 -5.809497,6.75485 -9.44103,8.12911 -3.188821,1.20674 -7.378754,1.62542 -10.704977,1.06971 z m 3.508638,-23.70031 c 6.144594,-5.13616 8.903621,-8.67612 9.230492,-11.84317 0.196321,-1.90224 -0.03749,-2.78578 -0.884191,-3.34054 -1.571104,-1.02942 -4.359117,0.65334 -6.554987,3.95641 -2.304328,3.4662 -6.041689,11.53339 -6.632464,14.31635 l -0.198205,0.93368 0.786424,-0.56257 c 0.432534,-0.30941 2.346357,-1.86649 4.252931,-3.46016 z m -42.898817,21.6463 c -6.725055,-1.75838 -12.019731,-7.76638 -14.3494115,-16.28264 -0.6965058,-2.54612 -0.8749143,-9.62476 -0.2695851,-10.69631 0.4500073,-0.79658 0.9984164,-0.78975 5.7387396,0.0717 8.25847,1.50065 9.340961,1.78178 9.673886,2.51246 0.424338,0.93132 0.381912,2.99061 -0.140899,6.83889 -0.876815,6.45405 -0.426741,11.57542 1.147216,13.05408 0.379231,0.35627 1.132515,0.65588 1.853238,0.73712 1.052323,0.11861 1.331085,0.0319 2.089834,-0.65011 1.754918,-1.57739 2.461493,-4.71353 3.045584,-13.51785 0.552018,-8.32086 0.205582,-12.33831 -1.2258,-14.21495 -0.399013,-0.52312 -1.483504,-1.30001 -2.542601,-1.8214 -2.670811,-1.31484 -5.17269,-1.27963 -10.184306,0.14329 -2.00902,0.57043 -3.874966,0.96661 -4.146545,0.8804 -0.736841,-0.23386 -2.155787,-3.44863 -1.786152,-4.04671 0.340755,-0.55137 3.198678,-2.19123 5.251021,-3.013023 2.539169,-1.016734 6.035614,-1.768745 9.474569,-2.037768 2.478515,-0.19389 2.507452,-0.20439 1.905812,-0.691565 -1.179965,-0.955499 -7.529529,-3.039098 -11.303906,-3.709384 -2.25855,-0.401098 -4.076682,-0.390151 -9.3786554,0.0565 L 6.5504771,49.422574 6.080712,48.092866 C 5.4676297,46.35749 5.2254992,42.438043 5.6376133,40.92027 6.0274891,39.484398 7.3001973,37.987074 8.7667535,37.238895 9.6448,36.790947 10.260149,36.697559 11.815457,36.776189 c 1.895489,0.09586 2.090961,0.178126 7.169619,3.01866 7.074714,3.95695 8.197062,4.496666 12.054228,5.796702 3.102565,1.045711 3.543805,1.123604 6.356675,1.12215 2.659382,-0.0011 3.326679,-0.1047 5.551894,-0.85966 1.391064,-0.47195 3.223243,-1.24979 4.07151,-1.728521 0.85846,-0.484486 1.638387,-0.762813 1.759008,-0.627736 0.119188,0.133478 1.187411,2.128102 2.37383,4.432503 l 2.157123,4.189809 -1.052287,1.077636 c -1.228549,1.25815 -3.653726,2.424574 -5.554358,2.671443 -0.735802,0.09555 -1.476069,0.249788 -1.645041,0.342688 -0.198588,0.109196 0.168709,0.994851 1.038718,2.504644 2.515061,4.36455 3.380821,8.28659 3.184537,14.42645 -0.205773,6.43669 -1.38562,10.11255 -4.626205,14.41314 -3.261727,4.32863 -6.829576,6.88854 -11.135867,7.98991 -2.575271,0.65864 -7.687352,0.71516 -9.999738,0.11055 z"
       id="path1" /></g></svg>
